# xmcd
#
# Track frame offsets:
#	150
#	12938
#	31963
#	50797
#	69531
#	79380
#	102703
#	118198
#	139435
#	150840
#	170326
#
# Disc length: 2560 seconds
#
# Revision: 1
# Processed by: cddbd v1.5.2PL0 Copyright (c) Steve Scherf et al.
# Submitted via: audiograbber 1.83.01
#
DISCID=9809fe0b
DTITLE=Homegrown - Gone Fishin'
DYEAR=1900
DGENRE=Christian Rock
TTITLE0=Part of a plan
TTITLE1=Hands and feet
TTITLE2=Gone fishin'
TTITLE3=Faith to believe
TTITLE4=Fishers of men
TTITLE5=Send me
TTITLE6=The bible song
TTITLE7=Farther along
TTITLE8=Sail on
TTITLE9=Help one another
TTITLE10=Songs they've never heard
EXTD=
EXTT0=
EXTT1=
EXTT2=
EXTT3=
EXTT4=
EXTT5=
EXTT6=
EXTT7=
EXTT8=
EXTT9=
EXTT10=
PLAYORDER=
